<svg width="1011" height="449" viewBox="0 0 1011 449" fill="none" xmlns="http://www.w3.org/2000/svg">
<g filter="url(#filter0_ng_659_166)">
<g filter="url(#filter1_n_659_166)">
<path d="M24.3411 24.1861C24.3236 23.3661 24.3758 25.8136 31.3311 53.8049C37.613 79.0863 51.95 126.212 60.1898 157.315C68.4295 188.417 70.7683 201.903 71.9863 209.465C73.3983 218.231 73.7026 221.155 74.983 223.203C78.6201 229.022 88.8199 212.579 95.3656 208.294C102.958 203.324 112.573 199.22 135.254 187.792C140.454 185.363 142.495 184.909 144.563 184.243C146.631 183.578 148.663 182.714 153.215 180.529" stroke="#EE3925" stroke-width="40" stroke-linecap="round"/>
</g>
<g filter="url(#filter2_n_659_166)">
<path d="M146.198 26.5557C146.233 28.1956 146.268 29.8355 149.252 83.1181C152.235 136.401 158.166 241.277 164.277 349.33" stroke="#EE3925" stroke-width="40" stroke-linecap="round"/>
</g>
<path d="M229.136 243.539C233.662 243.033 240.231 240.419 250.856 234.816C266.233 226.709 273.203 214.086 278.472 197.188C281.488 187.518 277.089 179.561 273.914 176.112C268.192 169.893 248.393 169.796 234.699 172.562C228.32 173.85 221.646 181.503 215.026 193.049C211.237 199.656 212.583 225.05 214.324 239.07C215.137 245.611 223.897 253.122 232.745 259.185C248.679 270.103 262.341 267.689 272.91 268.495C292.2 267.884 300.379 264.416 306.947 260.329C308.584 259.256 310.607 257.983 312.692 256.67" stroke="#2EB251" stroke-width="40" stroke-linecap="round"/>
<path d="M364.818 128.126C364.827 128.536 364.836 128.946 365.518 151.292C366.2 173.637 367.555 217.906 368.476 241.527C369.397 265.148 369.842 266.779 370.354 270.944" stroke="#2894D0" stroke-width="40" stroke-linecap="round"/>
<path d="M320.385 142.748C329.019 142.563 351.301 140.037 381.813 130.946C402.719 124.717 433.87 112.781 451.847 106.288C469.824 99.7953 473.488 98.4865 475.99 97.7992C478.492 97.1119 479.722 97.0856 480.99 97.0586" stroke="#2894D0" stroke-width="40" stroke-linecap="round"/>
<path d="M444.669 84.1621L448.463 261.819" stroke="#2894D0" stroke-width="40" stroke-linecap="round"/>
<path d="M516.986 129.794C516.325 133.245 528.348 153.528 543.584 179.389C559.332 204.485 569.088 219.947 577.808 233.333C579.688 236.007 581.347 237.669 583.441 241.316" stroke="#FC8F23" stroke-width="40" stroke-linecap="round"/>
<path d="M661.471 144.009C657.983 157.999 653.733 169.734 640.678 208.03C629.257 241.53 611.394 304.669 601.101 338.62C590.809 372.571 589.469 375.697 587.423 382.135C585.377 388.573 582.664 398.226 580.274 405.649C577.884 413.072 575.899 417.971 574 424.289" stroke="#FC8F23" stroke-width="40" stroke-linecap="round"/>
<path d="M787.443 125.503C782.264 130.239 774.223 140.872 756.498 168.768C748.94 180.663 740.187 198.825 734.774 209.582C725.644 227.726 722.381 235.706 719.731 243.334C718.491 246.507 717.242 249.705 716.028 252.675C715.429 254.07 714.866 255.238 714.286 256.442" stroke="#A54882" stroke-width="40" stroke-linecap="round"/>
<path d="M718.862 122.979C718.758 123.792 720.728 127.778 731.794 153.019C741.223 174.527 756.837 214.365 765.304 236.278C776.194 268.511 779.713 280.25 780.518 285.358C780.874 287.515 781.125 288.787 781.224 291.33" stroke="#A54882" stroke-width="40" stroke-linecap="round"/>
<path d="M847.66 295.62C847.72 294.802 849.146 280.914 852.774 253.837C854.606 240.166 858.039 226.879 866.481 201.798C874.923 176.717 888.684 140.306 897.692 117.783C906.701 95.2602 910.541 87.7286 912.972 83.265C915.404 78.8015 916.312 77.6343 917.247 76.4317" stroke="#FFCC2A" stroke-width="40" stroke-linecap="round"/>
<path d="M928.554 92.209C928.494 93.0269 934.43 107.453 948.76 146.326C957.835 170.945 967.701 206.506 974.218 232.587C980.736 258.667 982.873 274.448 983.65 292.627C984.428 310.806 983.782 330.906 981.696 354.003" stroke="#FFCC2A" stroke-width="40" stroke-linecap="round"/>
<path d="M868.326 217.389C880.199 218.256 914.756 222.425 926.499 225.164C934.106 226.343 939.821 227.595 944.914 229.001C946.349 229.317 947.984 229.437 949.67 229.56" stroke="#FFCC2A" stroke-width="40" stroke-linecap="round"/>
</g>
<defs>
<filter id="filter0_ng_659_166" x="0.3396" y="0.0351562" width="1007.63" height="448.259" filterUnits="userSpaceOnUse" color-interpolation-filters="sRGB">
<feFlood flood-opacity="0" result="BackgroundImageFix"/>
<feBlend mode="normal" in="SourceGraphic" in2="BackgroundImageFix" result="shape"/>
<feTurbulence type="fractalNoise" baseFrequency="0.14492753148078918 0.14492753148078918" stitchTiles="stitch" numOctaves="3" result="noise" seed="1521" />
<feComponentTransfer in="noise" result="coloredNoise1">
<feFuncR type="linear" slope="2" intercept="-0.5" />
<feFuncG type="linear" slope="2" intercept="-0.5" />
<feFuncB type="linear" slope="2" intercept="-0.5" />
<feFuncA type="discrete" tableValues="1 1 1 1 1 1 1 1 1 1 1 1 1 1 1 1 1 1 1 1 1 1 1 1 1 1 1 1 1 1 1 1 1 1 1 1 1 1 1 1 1 1 1 1 1 1 1 1 1 1 1 0 0 0 0 0 0 0 0 0 0 0 0 0 0 0 0 0 0 0 0 0 0 0 0 0 0 0 0 0 0 0 0 0 0 0 0 0 0 0 0 0 0 0 0 0 0 0 0 0 "/>
</feComponentTransfer>
<feComposite operator="in" in2="shape" in="coloredNoise1" result="noise1Clipped" />
<feComponentTransfer in="noise1Clipped" result="color1">
<feFuncA type="table" tableValues="0 0.15" />
</feComponentTransfer>
<feMerge result="effect1_noise_659_166">
<feMergeNode in="shape" />
<feMergeNode in="color1" />
</feMerge>
<feTurbulence type="fractalNoise" baseFrequency="0.17241378128528595 0.17241378128528595" numOctaves="3" seed="2479" />
<feDisplacementMap in="effect1_noise_659_166" scale="8" xChannelSelector="R" yChannelSelector="G" result="displacedImage" width="100%" height="100%" />
<feMerge result="effect2_texture_659_166">
<feMergeNode in="displacedImage"/>
</feMerge>
</filter>
<filter id="filter1_n_659_166" x="4.3396" y="4.03516" width="168.88" height="240.402" filterUnits="userSpaceOnUse" color-interpolation-filters="sRGB">
<feFlood flood-opacity="0" result="BackgroundImageFix"/>
<feBlend mode="normal" in="SourceGraphic" in2="BackgroundImageFix" result="shape"/>
<feTurbulence type="fractalNoise" baseFrequency="2 2" stitchTiles="stitch" numOctaves="3" result="noise" seed="4086" />
<feComponentTransfer in="noise" result="coloredNoise1">
<feFuncR type="linear" slope="2" intercept="-0.5" />
<feFuncG type="linear" slope="2" intercept="-0.5" />
<feFuncB type="linear" slope="2" intercept="-0.5" />
<feFuncA type="discrete" tableValues="1 1 1 1 1 1 1 1 1 1 1 1 1 1 1 1 1 1 1 1 1 1 1 1 1 1 1 1 1 1 1 1 1 1 1 1 1 1 1 1 1 1 1 1 1 1 1 1 1 1 1 0 0 0 0 0 0 0 0 0 0 0 0 0 0 0 0 0 0 0 0 0 0 0 0 0 0 0 0 0 0 0 0 0 0 0 0 0 0 0 0 0 0 0 0 0 0 0 0 0 "/>
</feComponentTransfer>
<feComposite operator="in" in2="shape" in="coloredNoise1" result="noise1Clipped" />
<feComponentTransfer in="noise1Clipped" result="color1">
<feFuncA type="table" tableValues="0 0.15" />
</feComponentTransfer>
<feMerge result="effect1_noise_659_166">
<feMergeNode in="shape" />
<feMergeNode in="color1" />
</feMerge>
</filter>
<filter id="filter2_n_659_166" x="126.198" y="6.55566" width="58.0795" height="362.775" filterUnits="userSpaceOnUse" color-interpolation-filters="sRGB">
<feFlood flood-opacity="0" result="BackgroundImageFix"/>
<feBlend mode="normal" in="SourceGraphic" in2="BackgroundImageFix" result="shape"/>
<feTurbulence type="fractalNoise" baseFrequency="2 2" stitchTiles="stitch" numOctaves="3" result="noise" seed="4086" />
<feComponentTransfer in="noise" result="coloredNoise1">
<feFuncR type="linear" slope="2" intercept="-0.5" />
<feFuncG type="linear" slope="2" intercept="-0.5" />
<feFuncB type="linear" slope="2" intercept="-0.5" />
<feFuncA type="discrete" tableValues="1 1 1 1 1 1 1 1 1 1 1 1 1 1 1 1 1 1 1 1 1 1 1 1 1 1 1 1 1 1 1 1 1 1 1 1 1 1 1 1 1 1 1 1 1 1 1 1 1 1 1 0 0 0 0 0 0 0 0 0 0 0 0 0 0 0 0 0 0 0 0 0 0 0 0 0 0 0 0 0 0 0 0 0 0 0 0 0 0 0 0 0 0 0 0 0 0 0 0 0 "/>
</feComponentTransfer>
<feComposite operator="in" in2="shape" in="coloredNoise1" result="noise1Clipped" />
<feComponentTransfer in="noise1Clipped" result="color1">
<feFuncA type="table" tableValues="0 0.15" />
</feComponentTransfer>
<feMerge result="effect1_noise_659_166">
<feMergeNode in="shape" />
<feMergeNode in="color1" />
</feMerge>
</filter>
</defs>
</svg>
